# xmcd
#
# Track frame offsets:
#	150
#	10427
#	32885
#	51889
#	76491
#	98452
#	122865
#	157742
#	181458
#	202970
#	224497
#	243583
#	272010
#	295867
#
# Disc length: 4330 seconds
#
# Revision: 4
# Processed by: cddbd v1.5.2PL0 Copyright (c) Steve Scherf et al.
# Submitted via: EasyCDDAExtractor 12.0.1.1
#
DISCID=c310e80e
DTITLE=globe - CRUISE RECORD 1995-2000
DYEAR=2000
DGENRE=JPOP
TTITLE0=Overseas Call
TTITLE1=MISS YOUR BODY - tan line mix
TTITLE2=biting her nails
TTITLE3=still growin' up
TTITLE4=sweet heart
TTITLE5=DEPARTURES
TTITLE6=Anytime smokin' cigarette
TTITLE7=SWEET PAIN
TTITLE8=Love again
TTITLE9=FREEDOM
TTITLE10=TIME without tears
TTITLE11=Wanderin' Destiny
TTITLE12=Sa Yo Na Ra
TTITLE13=Perfume of love
EXTD=YEAR: 2000
EXTT0=
EXTT1=
EXTT2=
EXTT3=
EXTT4=
EXTT5=
EXTT6=
EXTT7=
EXTT8=
EXTT9=
EXTT10=
EXTT11=
EXTT12=
EXTT13=
PLAYORDER=
